:SAMPLES-PER-SECOND 30
:FULLY-SPECIFIED
:DEGREES
499
root  26.0631 33.3503 -53.8515 177.954 71.3175 172.7
RightUpLeg  -4.98865 -13.2419 -8.68032
RightLeg  44.6702 1.54882 1.31129
RightFoot  3.8235 0.000958897 0.470466
RightToes  -68.6813 -0.477864 -0.4143
Spine  -1.77977 3.21491 -1.33125
Spine1  -3.4015 7.1983 -2.20326
HEad  -37.7853 8.61367 4.44899
LeftShoulder1  -1.94126e-019 -3.10601e-018 -2.51263e-017
LeftArm  -35.7827 41.9293 -78.6615
LeftForeArm  27.2449 -5.54386 -0.968654
LeftHand  -0.307773 1.63321 9.39116
RightShoulder  -4.96962e-017 0 -2.36833e-017
RightArm  -20.3584 -20.4093 75.052
RightForeArm  53.941 28.3562 3.32803
RightHand  -0.498647 -0.372232 -11.5484
LeftUpLeg  -28.4309 22.3666 -10.0237
LeftLeg  31.0815 25.2103 12.446
LeftFoot  -1.78925 -0.0117839 -0.593054
LeftToes  4.97756 1.87998e-006 4.79886e-008
500
root  27.0772 33.4842 -54.6256 178.77 69.6199 173.653
RightUpLeg  -9.94278 -16.612 -9.22199
RightLeg  55.2045 -1.10952 -1.46297
RightFoot  14.5816 0.0799099 -0.0840985
RightToes  -61.7518 -0.411147 -0.402477
Spine  -1.8474 3.10454 -1.17161
Spine1  -3.54188 6.92152 -1.835
HEad  -37.9777 9.17053 3.20292
LeftShoulder1  -1.94126e-019 -3.10601e-018 -2.51263e-017
LeftArm  -34.9211 41.4076 -77.7129
LeftForeArm  26.7721 -6.72063 -1.17617
LeftHand  -0.321609 1.39855 9.26946
RightShoulder  -4.96962e-017 0 -2.36833e-017
RightArm  -20.4217 -21.0744 75.0385
RightForeArm  53.8811 24.8736 2.61315
RightHand  -0.460823 -0.204456 -10.3441
LeftUpLeg  -25.6458 22.5467 -9.99431
LeftLeg  29.6292 23.9383 11.1647
LeftFoot  -3.83962 -0.0580071 -1.56883
LeftToes  6.18826 1.87998e-006 4.79886e-008
501
root  28.0087 33.6417 -55.2757 179.525 66.7006 174.456
RightUpLeg  -15.1026 -19.8627 -8.59929
RightLeg  63.8857 -4.13715 -7.29165
RightFoot  23.7514 0.759163 -3.02832
RightToes  -39.8918 -0.217619 -0.31451
Spine  -1.7569 2.66201 -0.99322
Spine1  -3.39052 5.89715 -1.3976
HEad  -39.1252 9.84056 2.04524
LeftShoulder1  -1.94126e-019 -3.10601e-018 -2.51263e-017
LeftArm  -34.2377 39.1584 -76.9204
LeftForeArm  27.4362 -7.37182 -1.29078
LeftHand  -0.3359 1.16005 9.16641
RightShoulder  -4.96962e-017 0 -2.36833e-017
RightArm  -21.1673 -20.9896 75.106
RightForeArm  55.6895 20.5321 1.83332
RightHand  -0.46923 0.661324 -9.0986
LeftUpLeg  -23.0207 19.6988 -9.53973
LeftLeg  28.6479 24.1068 10.7631
LeftFoot  -4.51091 -0.0825207 -1.93339
LeftToes  6.14165 1.87998e-006 4.79886e-008
502
root  28.9387 33.8579 -55.826 -179.061 62.6084 175.892
RightUpLeg  -19.1837 -21.9497 -6.82912
RightLeg  68.6349 -4.56378 -9.81099
RightFoot  21.1785 0.799091 -3.67705
RightToes  -35.1995 -0.181315 -0.286431
Spine  -1.67547 2.01397 -0.75211
Spine1  -3.29684 4.33943 -0.817535
HEad  -40.3503 10.1132 1.68506
LeftShoulder1  -1.94126e-019 -3.10601e-018 -2.51263e-017
LeftArm  -33.4026 35.9275 -76.1443
LeftForeArm  28.5924 -8.11287 -1.42166
LeftHand  -0.34616 0.92791 8.98133
RightShoulder  -4.96962e-017 0 -2.36833e-017
RightArm  -25.6067 -21.0594 75.461
RightForeArm  60.8522 15.4204 1.50608
RightHand  -0.511253 1.12942 -9.23095
LeftUpLeg  -20.1481 15.8091 -8.71199
LeftLeg  26.6503 24.2582 9.87423
LeftFoot  -4.43011 -0.0810684 -1.93409
LeftToes  5.23095 1.87998e-006 4.79886e-008
503
root  29.8624 34.0864 -56.2845 -176.917 57.6862 178.069
RightUpLeg  -22.6646 -23.25 -4.14261
RightLeg  69.5509 -3.42093 -7.74903
RightFoot  15.9228 0.382586 -2.15277
RightToes  -30.9629 -0.150608 -0.258603
Spine  -1.61362 1.38457 -0.330471
Spine1  -3.25636 2.87977 0.0264981
HEad  -41.3751 10.3144 1.87412
LeftShoulder1  -1.94126e-019 -3.10601e-018 -2.51263e-017
LeftArm  -30.6544 32.642 -75.6282
LeftForeArm  27.4966 -11.0316 -1.94262
LeftHand  -0.343907 0.763053 8.62029
RightShoulder  -4.96962e-017 0 -2.36833e-017
RightArm  -30.0875 -21.8845 75.594
RightForeArm  64.5082 11.8608 1.46966
RightHand  -0.516117 0.73483 -9.88325
LeftUpLeg  -17.5247 11.9782 -7.30266
LeftLeg  24.3103 23.6116 8.57112
LeftFoot  -4.20618 -0.071704 -1.79082
LeftToes  4.22393 1.87998e-006 4.79886e-008
504
root  30.7461 34.2302 -56.7183 -175.675 52.3027 179.117
RightUpLeg  -26.0062 -23.8329 -1.83583
RightLeg  67.946 -2.60311 -5.53034
RightFoot  14.7352 0.256098 -1.4109
RightToes  -30.3284 -0.146189 -0.254242
Spine  -1.66519 0.891971 -0.0854917
Spine1  -3.37056 1.84811 0.499039
HEad  -42.4139 10.7428 2.27447
LeftShoulder1  -1.94126e-019 -3.10601e-018 -2.51263e-017
LeftArm  -27.1266 30.1094 -75.3596
LeftForeArm  26.3195 -18.9742 -3.3122
LeftHand  -0.336629 0.29627 7.70654
RightShoulder  -4.96962e-017 0 -2.36833e-017
RightArm  -33.0599 -23.6109 75.7514
RightForeArm  65.8653 10.6117 1.53445
RightHand  -0.485719 0.413471 -9.79439
LeftUpLeg  -15.466 8.08199 -6.23498
LeftLeg  22.4096 22.4305 7.36771
LeftFoot  -4.01074 -0.0613069 -1.58918
LeftToes  2.64202 1.87998e-006 4.79886e-008
